<svg xmlns="http://www.w3.org/2000/svg" viewBox="0 0 500 500"><path d="M359.902 101.612c-30 0-54.152 24.152-54.152 54.152V547.46c0 30 24.152 54.151 54.152 54.151h391.696c30 0 54.152-24.151 54.152-54.151V155.764c0-30-24.152-54.152-54.152-54.152H359.902zm209.724 133.01c4.554-.022 10.474.79 14.215 3.385 2.758 1.913 6.386 4.126 6.43 12.748.147 28.205-.195 52.774.226 81.566.55 5.993 4.444 8.479 8.123 8.46 3.68-.017 7.9-2.317 11.056-5.414 17.092-16.782 36.784-57.142 48.85-83.597 4.502-9.872 11.768-9.239 19.968-9.25 27.453-.041 38.57.306 64.305.45 4.713.026 8.82 4.007 10.153 6.882 1.152 2.483 1.977 9.677-4.287 19.856-19.271 31.315-36.99 56.532-58.438 86.304-1.353 1.878-2.639 4.117-2.595 6.43.04 2.117 1.136 4.22 2.595 5.754 19.124 20.118 39.087 40.363 58.664 62.5 5.768 6.523 2.146 16.585.564 19.404-1.199 2.137-6.613 7.643-10.266 7.672-13.304.106-13.337 0-69.044 0-8.25 0-11.542-2.41-15.907-6.995-19.314-20.29-16.934-17.84-38.132-40.5-2.753-2.945-8.212-6.644-13.425-4.288-4.424 2-12.522 4.952-12.522 13.087v28.43c0 5.163-8.102 9.025-12.974 9.025h-37.906c-17.845 0-33.292-4.303-41.855-8.461-36.892-17.915-58.824-42.864-82.807-84.387-20.478-35.456-38.298-70.364-55.844-106.949-1.96-4.087-3.353-13.087 11.282-13.087 15.461 0 29.96-.338 53.475-.338 6.903 0 11.196 1.39 14.102 3.497 2.905 2.108 4.335 4.917 5.753 7.56 29.254 54.471 29.32 57.805 50.203 84.837 1.961 2.537 4.788 2.921 6.882 2.933 2.588.014 4.98-.406 6.995-2.03 4.227-3.411 5.415-7.065 5.415-12.298v-55.054c0-6.313-4.276-15.67-9.025-18.615-4.92-2.832-13.007-5.638-12.749-9.138.284-3.828 9.192-10.266 25.046-10.266 18.955 0 32.389-.014 53.474-.113z" transform="translate(-305.75 -101.612)" fill="#ffffff" fill-opacity="1" stroke="none" class="fill-000000"></path></svg>